<?xml version="1.0"?>
<svg width="1024" height="1024" xmlns="http://www.w3.org/2000/svg" xmlns:svg="http://www.w3.org/2000/svg" class="icon" version="1.1">
 <g class="layer">
  <title>Layer 1</title>
  <path d="m512,512m-450,0a450,450 0 1 0 900,0a450,450 0 1 0 -900,0z" fill="#ea0056" id="svg_1" transform="matrix(1 0 0 1 0 0)"/>
  <path d="m234.95,251.09l383.15,0a21.29,21.29 0 0 1 21.29,21.29l0,340.57a21.29,21.29 0 0 1 -21.29,21.29l-127.72,0c0,-14.47 -1.11,-28.69 -3.26,-42.57l109.69,0l0,-298.01l-340.57,0l0,67.12a278.84,278.84 0 0 0 -42.58,-3.26l0,-85.14a21.29,21.29 0 0 1 21.29,-21.29zm212.86,383.15l-42.58,0a191.57,191.57 0 0 0 -191.57,-191.57l0,-42.57c129.31,0 234.15,104.83 234.15,234.14zm-85.15,0l-42.57,0a106.43,106.43 0 0 0 -106.43,-106.43l0,-42.58a149,149 0 0 1 149,149zm-85.15,0l-63.86,0l0,-63.86a63.86,63.86 0 0 1 63.86,63.86zm199.52,-85.15a277.4,277.4 0 0 0 -178.23,-178.22l0,-34.63l255.43,0l0,212.86l-77.2,0z" fill="#f7f7f7" id="svg_4"/>
  <g id="svg_5" transform="matrix(1 0 0 1 0 0) translate(190 -35) matrix(0.30887 0 0 0.30887 416.613 529.156)">
   <path d="m712.1,378.8c-0.1,0 -0.1,0 0,0c-0.1,0 -0.1,0 0,0c-10.6,0 -19.2,9 -19.2,20.1l0,290.9c0,21 -17,37.9 -37.9,37.9l-286,-0.1c-20.9,0 -37.9,-16.9 -37.9,-37.9l0,-290.8c0,-11 -8.5,-20.1 -19.1,-20.1l-0.1,0l-0.1,0c-10.6,0 -19.1,9 -19.1,20.1l0,342c0,53 38.4,96.1 85.7,96.1l266.8,0c47.3,0 85.7,-43.1 85.7,-96.1l0.1,0l0,-342c0.2,-11.1 -8.3,-20.1 -18.9,-20.1zm-387.5,-102.6c5.1,6.6 14.6,8 21.4,2.8c0.8,-0.6 82,-61.4 162.6,-61.4l2.1,0c81.6,1.1 167,61.1 167.9,61.7c2.7,1.9 5.8,2.8 8.9,2.8c4.8,0 9.4,-2.3 12.4,-6.4c1.9,-2.6 2.8,-5.6 2.8,-8.6c0.2,-4.9 -2.1,-9.8 -6.3,-12.8c-3.7,-2.7 -94,-66.1 -185.2,-67.4c-91.6,-1.2 -179.8,64.8 -183.5,67.7c-3.8,2.9 -5.8,7.3 -6,11.7c-0.4,3.5 0.6,7 2.9,9.9z" fill="#ffffff" id="svg_2"/>
   <path d="m651.3,330.3c-2.8,-2 -70.9,-50 -140,-50.9c-69.5,-0.9 -136.1,48.9 -138.9,51c-3.8,2.8 -5.8,7.2 -6,11.6c-0.2,3.4 0.9,6.9 3.1,9.8c5.1,6.7 14.6,8 21.4,2.9c0.6,-0.5 61.3,-45.7 120.2,-44.9c59.4,0.8 122,44.8 122.7,45.3c2.8,1.9 5.8,2.8 8.9,2.8c4.8,0 9.4,-2.3 12.4,-6.4c1.9,-2.6 2.8,-5.5 2.8,-8.5c-0.1,-4.7 -2.4,-9.7 -6.6,-12.7zm-139.3,39.8c-25.6,0 -46.4,20.7 -46.4,46.4c0,25.6 20.7,46.4 46.4,46.4c25.6,0 46.3,-20.8 46.3,-46.4c0,-25.6 -20.6,-46.4 -46.3,-46.4z" fill="#ffffff" id="svg_3"/>
  </g>
 </g>
</svg>